<?xml version="1.0" standalone="no"?>
<!DOCTYPE svg PUBLIC "-//W3C//DTD SVG 20010904//EN"
 "http://www.w3.org/TR/2001/REC-SVG-20010904/DTD/svg10.dtd">
<svg version="1.0" xmlns="http://www.w3.org/2000/svg"
 width="512.000000pt" height="512.000000pt" viewBox="0 0 512.000000 512.000000"
 preserveAspectRatio="xMidYMid meet">

<g transform="translate(0.000000,512.000000) scale(0.100000,-0.100000)"
fill="#000000" stroke="none">
<path d="M2389 4587 c-40 -26 -69 -79 -69 -124 0 -59 29 -110 96 -169 36 -31
71 -69 79 -85 20 -39 20 -95 -1 -103 -27 -10 -54 22 -54 66 0 42 1 42 -70 27
-58 -12 -61 -22 -27 -89 29 -59 76 -90 136 -90 88 0 146 58 145 144 -1 70 -24
108 -113 193 -66 64 -75 76 -75 108 0 69 54 74 69 6 l9 -43 51 7 c27 3 53 9
57 13 17 17 -12 88 -51 125 -36 33 -46 37 -94 37 -40 0 -63 -6 -88 -23z"/>
<path d="M3029 4587 c-62 -41 -69 -69 -69 -272 0 -168 2 -183 23 -220 31 -55
77 -77 150 -72 68 4 103 26 132 83 18 35 20 59 20 214 0 196 -7 222 -75 267
-46 32 -134 32 -181 0z m123 -84 c16 -14 18 -34 18 -186 0 -145 -3 -173 -17
-189 -22 -24 -49 -23 -67 4 -13 18 -16 54 -16 183 0 129 3 165 16 183 18 26
41 28 66 5z"/>
<path d="M3763 4595 c-61 -26 -93 -108 -73 -182 10 -34 30 -61 91 -121 79 -76
106 -123 94 -161 -16 -50 -64 -25 -72 37 -5 41 -7 43 -34 37 -95 -18 -89 -15
-83 -43 20 -87 66 -132 142 -140 88 -8 162 54 162 135 0 70 -21 106 -107 190
-79 77 -84 85 -81 119 4 47 32 68 54 40 8 -11 14 -33 14 -49 0 -30 0 -30 46
-23 26 3 53 6 60 6 39 0 -8 119 -58 150 -39 23 -108 26 -155 5z"/>
<path d="M1180 4315 l0 -285 55 0 55 0 0 285 0 285 -55 0 -55 0 0 -285z"/>
<path d="M1360 4316 l0 -286 50 0 49 0 3 148 3 147 59 -147 60 -148 38 0 38 0
0 285 0 285 -45 0 -44 0 -3 -147 -3 -148 -60 145 -60 145 -43 3 -42 3 0 -285z"/>
<path d="M1707 4593 c-2 -5 19 -133 47 -285 l50 -278 53 0 c46 0 53 3 58 23
13 56 105 522 105 534 0 11 -13 13 -52 11 l-53 -3 -26 -160 c-14 -88 -28 -153
-32 -145 -3 8 -13 67 -22 130 -28 199 -20 180 -76 180 -26 0 -50 -3 -52 -7z"/>
<path d="M2067 4593 c-4 -3 -7 -132 -7 -285 l0 -278 121 0 120 0 -3 38 -3 37
-57 3 -58 3 0 84 0 85 40 0 40 0 0 40 0 40 -40 0 -40 0 0 80 0 80 60 0 60 0 0
40 0 40 -113 0 c-63 0 -117 -3 -120 -7z"/>
<path d="M2644 4586 c-3 -8 -4 -27 -2 -43 3 -25 7 -28 46 -31 l42 -3 0 -240 0
-239 55 0 55 0 0 240 0 240 40 0 40 0 0 45 0 45 -135 0 c-108 0 -137 -3 -141
-14z"/>
<path d="M3350 4315 l0 -285 55 0 55 0 0 130 c0 183 10 178 60 -32 l24 -98 58
0 c32 0 58 3 58 7 0 5 -19 63 -41 131 l-41 124 33 34 c31 32 34 41 37 109 4
74 4 75 -30 109 -42 42 -90 56 -190 56 l-78 0 0 -285z m170 190 c6 -8 14 -32
17 -54 7 -51 -16 -91 -52 -91 -24 0 -25 2 -25 73 0 41 3 77 7 80 11 12 40 8
53 -8z"/>
<path d="M1970 3690 l0 -180 25 0 c25 0 25 1 25 79 l0 78 41 6 c59 8 79 30 79
88 0 26 -3 55 -6 64 -10 25 -59 45 -114 45 l-50 0 0 -180z m118 82 c3 -38 0
-43 -23 -52 -38 -14 -45 -6 -45 51 l0 50 33 -3 c30 -3 32 -6 35 -46z"/>
<path d="M2254 3856 c-41 -18 -54 -58 -54 -168 0 -96 15 -149 48 -167 41 -22
101 -9 129 28 8 11 12 58 13 138 0 112 -2 124 -22 147 -28 32 -73 40 -114 22z
m84 -160 c3 -123 -3 -146 -39 -146 -39 0 -49 26 -49 131 0 120 9 141 53 137
l32 -3 3 -119z"/>
<path d="M2480 3691 l0 -181 65 0 c58 0 65 2 65 20 0 17 -7 20 -40 20 l-39 0
-3 158 c-3 154 -3 157 -25 160 l-23 3 0 -180z"/>
<path d="M2674 3857 c-2 -7 -3 -87 -2 -177 3 -163 3 -165 26 -168 l22 -3 0
180 c0 175 -1 181 -20 181 -11 0 -23 -6 -26 -13z"/>
<path d="M2864 3856 c-46 -20 -56 -57 -52 -186 3 -108 4 -113 31 -136 53 -46
125 -25 147 41 14 43 8 65 -20 65 -14 0 -20 -7 -20 -23 0 -28 -26 -67 -45 -67
-36 0 -45 29 -45 139 0 117 7 136 52 129 16 -2 26 -13 33 -35 7 -25 15 -33 32
-33 26 0 28 12 12 60 -8 22 -22 37 -45 46 -40 17 -41 17 -80 0z"/>
<path d="M3070 3690 l0 -180 65 0 c58 0 65 2 65 20 0 17 -7 20 -40 20 l-40 0
0 60 0 60 30 0 c23 0 30 4 30 20 0 16 -7 20 -30 20 -30 0 -30 1 -30 55 l0 55
40 0 c36 0 40 3 40 25 0 24 -2 25 -65 25 l-65 0 0 -180z"/>
<path d="M1195 3540 l-17 -50 -61 0 -62 -1 25 -22 c14 -12 36 -29 49 -38 l24
-15 -18 -53 c-9 -29 -15 -54 -13 -57 3 -2 22 9 44 26 21 16 43 30 47 30 5 0
28 -14 53 -30 49 -35 51 -33 28 34 -16 46 -16 48 5 63 12 8 34 26 49 39 l27
23 -61 1 -61 0 -13 45 c-7 25 -16 48 -21 50 -4 3 -15 -17 -24 -45z"/>
<path d="M3905 3540 l-17 -50 -61 0 -62 -1 23 -19 c13 -11 36 -28 50 -39 l27
-20 -18 -51 c-10 -29 -17 -54 -14 -56 2 -2 21 9 43 26 21 16 44 30 50 30 5 0
29 -14 52 -31 47 -34 48 -34 27 35 -16 54 -17 54 48 93 15 10 27 21 27 25 0 4
-26 8 -59 8 l-58 0 -13 45 c-7 25 -16 48 -21 50 -4 3 -15 -17 -24 -45z"/>
<path d="M3370 3024 c0 -3 38 -54 84 -113 83 -106 216 -241 237 -241 18 0 3
52 -38 136 -52 105 -124 167 -245 210 -21 7 -38 11 -38 8z"/>
<path d="M1630 2974 c-113 -52 -183 -133 -220 -253 -23 -74 -23 -71 -9 -71 20
0 141 125 220 228 102 133 103 140 9 96z"/>
<path d="M2523 2910 c-45 -18 -55 -72 -22 -114 l22 -27 -63 -172 c-35 -95 -73
-197 -85 -227 l-21 -55 -55 -6 c-30 -4 -143 -10 -251 -13 -164 -5 -198 -4
-198 7 0 23 -39 50 -72 50 -64 0 -92 -83 -42 -122 30 -23 55 -26 86 -10 22 12
10 20 263 -180 66 -52 125 -99 132 -105 10 -9 -3 -64 -55 -245 l-67 -233 -35
-12 c-68 -22 -79 -101 -19 -135 51 -28 118 25 103 83 -5 20 18 37 202 160
l206 138 208 -139 c198 -131 208 -139 203 -165 -12 -60 50 -102 106 -74 59 31
43 119 -24 132 -31 5 -36 11 -46 48 -6 22 -36 128 -66 235 -54 188 -55 194
-37 211 11 10 97 80 193 155 138 107 179 135 195 130 53 -17 71 -16 94 5 47
44 17 123 -48 123 -32 0 -70 -27 -70 -50 0 -8 -13 -13 -37 -13 -85 1 -466 19
-469 23 -14 13 -171 463 -163 465 5 2 16 17 24 32 18 35 8 70 -27 94 -25 18
-33 19 -65 6z"/>
<path d="M3670 2873 c0 -5 7 -17 15 -28 18 -23 95 -255 95 -284 0 -17 -20 -5
-102 61 -57 45 -118 95 -135 112 -32 29 -33 29 -33 8 0 -35 36 -98 83 -145 82
-80 247 -227 257 -227 6 0 10 51 10 128 0 149 -12 201 -65 278 -42 60 -126
126 -125 97z"/>
<path d="M1336 2800 c-78 -84 -89 -119 -88 -293 0 -82 3 -151 6 -154 8 -8 230
203 276 262 40 52 67 111 56 122 -6 6 -116 -87 -213 -181 -35 -33 -63 -56 -63
-50 0 21 40 169 65 243 40 119 33 128 -39 51z"/>
<path d="M1167 2596 c-25 -37 -57 -141 -63 -204 -9 -78 22 -213 86 -377 l11
-30 32 60 c18 33 60 101 93 150 92 136 152 265 123 265 -6 0 -48 -37 -93 -83
-57 -56 -92 -101 -112 -144 l-30 -62 -12 192 c-7 106 -9 207 -6 225 8 38 -7
42 -29 8z"/>
<path d="M3906 2568 c-3 -29 -7 -122 -8 -205 -1 -84 -6 -153 -9 -153 -4 0 -13
17 -20 38 -8 25 -43 68 -111 135 -54 53 -103 97 -107 97 -13 0 3 -58 29 -110
13 -25 64 -106 115 -181 51 -75 96 -145 99 -157 4 -12 11 -22 16 -22 12 0 70
191 83 272 7 46 7 92 0 150 -11 88 -47 188 -68 188 -8 0 -15 -20 -19 -52z"/>
<path d="M4040 2223 c0 -26 -20 -88 -103 -313 -32 -87 -36 -92 -42 -65 -21 93
-41 144 -86 223 -27 48 -57 94 -66 102 -14 14 -15 9 -9 -50 4 -36 19 -114 35
-175 16 -60 35 -137 44 -170 8 -33 18 -86 22 -117 4 -32 9 -58 13 -58 9 1 130
170 165 230 40 69 57 151 57 270 0 109 -6 150 -21 150 -5 0 -9 -12 -9 -27z"/>
<path d="M1043 2204 c-11 -30 4 -288 20 -331 21 -57 179 -281 199 -282 4 -1
10 20 13 47 4 26 24 119 45 207 49 205 70 351 46 324 -2 -2 -29 -51 -59 -109
-58 -109 -87 -196 -87 -264 0 -52 -8 -42 -25 33 -8 33 -32 102 -54 153 -22 51
-49 126 -61 166 -12 39 -24 72 -26 72 -3 0 -7 -7 -11 -16z"/>
<path d="M3722 1813 c-12 -22 -36 -182 -52 -340 -6 -61 -17 -131 -25 -154 -31
-88 -18 -89 97 -10 123 83 183 137 239 211 58 77 86 145 94 231 6 70 9 71 -48
-17 -16 -24 -61 -79 -100 -122 -38 -42 -92 -105 -119 -139 -28 -35 -51 -63
-53 -63 -2 0 2 19 10 41 20 56 18 176 -4 282 -10 48 -21 90 -24 93 -3 3 -10
-3 -15 -13z"/>
<path d="M1361 1770 c-30 -141 -32 -266 -6 -363 5 -18 1 -16 -17 8 -13 16 -50
61 -83 98 -129 147 -175 203 -192 235 -26 48 -37 39 -29 -23 13 -112 79 -231
172 -310 69 -59 253 -185 271 -185 16 0 17 15 3 40 -14 26 -27 100 -45 250
-20 164 -45 300 -55 300 -5 0 -13 -23 -19 -50z"/>
<path d="M3578 1487 c-50 -75 -69 -114 -123 -260 -26 -70 -63 -151 -81 -180
l-33 -52 29 -3 c37 -4 221 42 288 73 65 30 158 101 207 157 44 52 98 144 93
159 -2 6 -27 -9 -56 -33 -28 -24 -89 -66 -134 -92 -150 -87 -253 -144 -256
-141 -1 1 11 32 28 69 33 74 52 143 70 251 6 39 13 78 16 88 10 34 -14 16 -48
-36z"/>
<path d="M1496 1468 c18 -148 54 -265 104 -339 16 -24 27 -45 25 -47 -2 -2
-23 9 -47 26 -24 16 -101 60 -172 98 -71 37 -156 89 -188 117 -33 27 -62 46
-65 43 -12 -12 66 -125 137 -197 101 -101 181 -141 347 -171 67 -12 125 -19
128 -16 3 3 -12 39 -34 79 -22 41 -58 121 -81 178 -22 57 -50 122 -61 145 -28
55 -82 136 -92 136 -4 0 -5 -24 -1 -52z"/>
<path d="M3268 1114 c-141 -132 -176 -159 -250 -185 -89 -33 -94 -30 142 -81
70 -14 121 -19 196 -16 92 3 107 6 175 40 76 38 193 133 184 149 -4 5 -25 -1
-47 -12 -74 -38 -117 -48 -266 -64 -81 -8 -165 -18 -187 -21 l-40 -6 40 29
c65 48 115 111 151 190 19 41 34 76 34 79 0 16 -32 -9 -132 -102z"/>
<path d="M1720 1184 c14 -35 75 -140 107 -182 13 -18 48 -46 76 -63 l52 -31
-40 6 c-22 3 -110 13 -195 21 -99 11 -182 26 -229 41 -40 14 -76 22 -79 20
-16 -17 121 -116 210 -153 59 -24 70 -25 188 -20 129 6 329 49 337 73 2 6 -17
17 -43 24 -56 16 -125 67 -264 193 -110 101 -137 117 -120 71z"/>
<path d="M2259 873 c-28 -7 -96 -31 -152 -53 -155 -60 -217 -73 -317 -67 -47
3 -98 9 -115 12 l-30 7 25 -21 c14 -11 52 -35 85 -53 59 -32 63 -33 185 -33
145 0 156 4 324 109 110 69 187 99 207 79 8 -8 -8 -22 -60 -52 -78 -46 -216
-154 -230 -180 -11 -20 4 -51 25 -51 8 0 39 22 67 48 138 128 244 202 288 202
35 0 150 -78 258 -175 46 -41 87 -75 91 -75 15 0 42 40 37 54 -9 23 -123 110
-214 163 -45 26 -82 51 -83 54 0 14 34 19 69 9 20 -5 90 -41 155 -80 129 -77
173 -95 256 -105 94 -11 238 30 314 90 27 21 13 30 -25 16 -46 -16 -191 -14
-259 4 -33 8 -95 31 -140 50 -139 60 -168 63 -453 62 -174 -1 -274 -5 -308
-14z"/>
</g>
</svg>
